<svg width="390" height="123" viewBox="0 0 390 123" fill="none" xmlns="http://www.w3.org/2000/svg">
<path d="M108.58 0H12.73C5.69941 0 0 5.69941 0 12.73V110.1C0 117.131 5.69941 122.83 12.73 122.83H108.58C115.611 122.83 121.31 117.131 121.31 110.1V12.73C121.31 5.69941 115.611 0 108.58 0Z" fill="url(#paint0_linear)"/>
<path d="M38.62 33.43C38.5948 32.9647 38.6648 32.4991 38.8255 32.0617C38.9863 31.6242 39.2345 31.2242 39.555 30.8859C39.8755 30.5476 40.2616 30.2781 40.6897 30.094C41.1178 29.9098 41.579 29.8149 42.045 29.8149C42.511 29.8149 42.9722 29.9098 43.4003 30.094C43.8284 30.2781 44.2144 30.5476 44.535 30.8859C44.8555 31.2242 45.1037 31.6242 45.2644 32.0617C45.4252 32.4991 45.4951 32.9647 45.47 33.43V67L80.07 31.12C80.7691 30.3709 81.7361 29.9287 82.76 29.89C83.6435 29.931 84.4776 30.3098 85.0898 30.9481C85.7021 31.5864 86.0458 32.4355 86.05 33.32C86.0388 33.7839 85.9327 34.2406 85.7384 34.6619C85.5441 35.0832 85.2656 35.4604 84.92 35.77L63.42 57.38L86.48 86.15C87.1155 86.8482 87.4715 87.756 87.48 88.7C87.4673 89.6218 87.0975 90.5027 86.4484 91.1574C85.7993 91.812 84.9216 92.1894 84 92.21C83.442 92.204 82.8948 92.0558 82.4101 91.7793C81.9253 91.5028 81.5192 91.1073 81.23 90.63L58.57 62.12L45.47 75.36V88.7C45.4951 89.1654 45.4252 89.6309 45.2644 90.0684C45.1037 90.5058 44.8555 90.9059 44.535 91.2442C44.2144 91.5825 43.8284 91.8519 43.4003 92.036C42.9722 92.2202 42.511 92.3151 42.045 92.3151C41.579 92.3151 41.1178 92.2202 40.6897 92.036C40.2616 91.8519 39.8755 91.5825 39.555 91.2442C39.2345 90.9059 38.9863 90.5058 38.8255 90.0684C38.6648 89.6309 38.5948 89.1654 38.62 88.7V33.43Z" fill="white"/>
<path d="M134 88.71C133.653 88.4492 133.372 88.1108 133.179 87.7218C132.986 87.3328 132.887 86.9041 132.89 86.47C132.893 86.1185 132.965 85.771 133.102 85.4474C133.239 85.1238 133.439 84.8305 133.69 84.5843C133.941 84.3381 134.238 84.1438 134.564 84.0127C134.89 83.8815 135.239 83.816 135.59 83.82C136.13 83.8067 136.658 83.9758 137.09 84.3C140.87 87.0665 145.407 88.6059 150.09 88.71C155.01 88.71 158.57 86.14 158.57 82.13V82C158.57 77.83 153.74 76.23 148.34 74.7C141.94 72.83 134.8 70.58 134.8 63V62.8C134.8 55.66 140.67 50.92 148.8 50.92C153.384 51.0234 157.875 52.2346 161.89 54.45C162.342 54.7109 162.718 55.0852 162.981 55.5359C163.244 55.9866 163.385 56.4981 163.39 57.02C163.382 57.7273 163.095 58.4028 162.591 58.8992C162.087 59.3956 161.407 59.6727 160.7 59.67C160.231 59.6703 159.769 59.5607 159.35 59.35C156.116 57.3755 152.427 56.2698 148.64 56.14C143.8 56.14 140.71 58.71 140.71 62.14V62.3C140.71 66.23 145.79 67.75 151.26 69.44C157.6 71.36 164.42 73.85 164.42 81.31V81.47C164.42 89.33 158 93.91 149.83 93.91C144.15 93.8138 138.631 92.001 134 88.71V88.71Z" fill="#4D4D4D"/>
<path d="M214.74 103.23C214.74 104.039 214.419 104.815 213.847 105.387C213.275 105.959 212.499 106.28 211.69 106.28C210.881 106.28 210.105 105.959 209.533 105.387C208.961 104.815 208.64 104.039 208.64 103.23V84.78C205.31 89.78 200.47 94.01 192.93 94.01C183.1 94.01 173.35 86.14 173.35 72.51V72.35C173.35 58.79 183.1 50.76 192.93 50.76C200.55 50.76 205.46 54.93 208.64 59.59V54.37C208.629 53.967 208.699 53.5658 208.844 53.1898C208.99 52.8137 209.208 52.4702 209.487 52.1792C209.766 51.8881 210.1 51.6552 210.469 51.494C210.839 51.3328 211.237 51.2465 211.64 51.24C212.048 51.2426 212.452 51.3257 212.829 51.4844C213.205 51.6431 213.546 51.8744 213.833 52.165C214.12 52.4557 214.347 52.8 214.501 53.1783C214.655 53.5567 214.733 53.9616 214.73 54.37L214.74 103.23ZM179.61 72.23V72.4C179.61 82.18 186.35 88.4 194.04 88.4C201.73 88.4 208.87 81.9 208.87 72.4V72.23C208.87 62.69 201.66 56.23 194.04 56.23C186.11 56.3 179.61 62.24 179.61 72.26V72.23Z" fill="#4D4D4D"/>
<path d="M263.52 90.4C263.52 91.1957 263.204 91.9587 262.641 92.5213C262.079 93.0839 261.316 93.4 260.52 93.4C259.724 93.4 258.961 93.0839 258.399 92.5213C257.836 91.9587 257.52 91.1957 257.52 90.4V85.9C254.74 90.4 250.52 94.01 243.52 94.01C233.61 94.01 227.82 87.27 227.82 77.4V54.4C227.802 53.9952 227.867 53.5911 228.01 53.212C228.153 52.8329 228.371 52.4866 228.651 52.1941C228.932 51.9017 229.268 51.669 229.641 51.5101C230.014 51.3513 230.415 51.2696 230.82 51.27C231.646 51.2753 232.436 51.6077 233.017 52.1944C233.598 52.7811 233.923 53.5743 233.92 54.4V75.88C233.92 83.58 238.04 88.39 245.26 88.39C252.26 88.39 257.55 83.18 257.55 75.39V54.39C257.532 53.9852 257.597 53.5811 257.74 53.202C257.883 52.8229 258.101 52.4766 258.381 52.1841C258.662 51.8917 258.998 51.659 259.371 51.5001C259.744 51.3413 260.145 51.2596 260.55 51.26C260.953 51.2678 261.35 51.355 261.719 51.5167C262.088 51.6783 262.421 51.9113 262.7 52.2021C262.979 52.4929 263.197 52.8358 263.343 53.2113C263.489 53.5867 263.559 53.9873 263.55 54.39L263.52 90.4Z" fill="#4D4D4D"/>
<path d="M274.15 81.09V80.93C274.15 72.18 281.28 67.53 291.67 67.53C295.938 67.4879 300.188 68.0845 304.28 69.3V67.85C304.28 60.39 299.76 56.54 292.07 56.54C288.4 56.5367 284.773 57.3317 281.44 58.87C281.089 59.0199 280.712 59.1014 280.33 59.11C279.626 59.1024 278.952 58.8221 278.45 58.3278C277.949 57.8336 277.658 57.164 277.64 56.46C277.643 55.9178 277.8 55.3877 278.094 54.9323C278.389 54.4769 278.807 54.1152 279.3 53.89C283.513 52.0009 288.083 51.0424 292.7 51.08C298.49 51.08 302.93 52.61 305.95 55.66C308.72 58.46 310.15 62.48 310.15 67.77V90.48C310.161 90.871 310.093 91.2601 309.95 91.6243C309.808 91.9886 309.593 92.3204 309.32 92.6002C309.047 92.8801 308.72 93.1021 308.359 93.2532C307.999 93.4044 307.611 93.4815 307.22 93.48C306.835 93.4936 306.45 93.4286 306.091 93.2888C305.731 93.1491 305.404 92.9375 305.129 92.6671C304.854 92.3967 304.636 92.073 304.491 91.7159C304.345 91.3588 304.273 90.9757 304.28 90.59V86.87C302.559 89.1585 300.314 91.0005 297.733 92.2412C295.153 93.4819 292.312 94.0851 289.45 94C281.84 94 274.15 89.6 274.15 81.09ZM304.36 77.88V73.88C300.45 72.7126 296.391 72.1165 292.31 72.11C284.61 72.11 280.31 75.48 280.31 80.7V80.86C280.31 86.07 285.07 89.12 290.62 89.12C298.18 89.11 304.36 84.46 304.36 77.88V77.88Z" fill="#4D4D4D"/>
<path d="M323.16 54.37C323.152 53.5597 323.461 52.7784 324.022 52.1933C324.583 51.6083 325.35 51.2661 326.16 51.24C326.571 51.2359 326.978 51.3143 327.358 51.4705C327.738 51.6268 328.083 51.8577 328.372 52.1495C328.661 52.4414 328.888 52.7883 329.041 53.1697C329.194 53.5511 329.268 53.9593 329.26 54.37V62.16C332.26 55.26 338.26 51.08 343.37 51.08C343.775 51.0796 344.176 51.1613 344.549 51.3201C344.922 51.479 345.258 51.7117 345.539 52.0041C345.819 52.2966 346.037 52.6429 346.18 53.022C346.323 53.4011 346.388 53.8052 346.37 54.21C346.393 54.9748 346.128 55.7204 345.628 56.2998C345.129 56.8792 344.43 57.2503 343.67 57.34C335.74 58.34 329.24 64.34 329.24 76.28V90.4C329.264 90.8159 329.202 91.2323 329.06 91.6236C328.917 92.015 328.696 92.373 328.41 92.6759C328.124 92.9787 327.779 93.22 327.396 93.3849C327.014 93.5498 326.602 93.6349 326.185 93.6349C325.768 93.6349 325.356 93.5498 324.974 93.3849C324.591 93.22 324.246 92.9787 323.96 92.6759C323.674 92.373 323.453 92.015 323.31 91.6236C323.168 91.2323 323.106 90.8159 323.13 90.4L323.16 54.37Z" fill="#4D4D4D"/>
<path d="M371.46 94.09C360.2 94.09 351 85.34 351 72.51V72.35C351 60.35 359.32 50.76 370.66 50.76C382.8 50.76 389.66 60.76 389.66 71.76C389.664 72.1381 389.593 72.5132 389.451 72.8637C389.309 73.2142 389.099 73.533 388.833 73.8018C388.567 74.0705 388.25 74.2839 387.901 74.4295C387.552 74.5751 387.178 74.65 386.8 74.65H357.18C358.05 83.65 364.32 88.65 371.62 88.65C373.808 88.6641 375.978 88.2466 378.004 87.4212C380.031 86.5958 381.874 85.3789 383.43 83.84C383.685 83.5947 383.988 83.4035 384.319 83.2778C384.65 83.1521 385.003 83.0945 385.356 83.1085C385.71 83.1226 386.057 83.2079 386.377 83.3594C386.697 83.5109 386.984 83.7254 387.219 83.9901C387.454 84.2549 387.633 84.5644 387.746 84.9001C387.858 85.2357 387.902 85.5907 387.874 85.9437C387.846 86.2966 387.747 86.6403 387.583 86.9542C387.419 87.268 387.194 87.5455 386.92 87.77C384.923 89.8395 382.518 91.4703 379.856 92.5585C377.194 93.6466 374.335 94.1682 371.46 94.09ZM383.59 70.09C383 62.56 378.67 56 370.51 56C363.37 56 357.98 62 357.18 70.12L383.59 70.09Z" fill="#4D4D4D"/>
<defs>
<linearGradient id="paint0_linear" x1="60.66" y1="122.83" x2="60.66" y2="0" gradientUnits="userSpaceOnUse">
<stop stop-color="#E53B63"/>
<stop offset="0.01" stop-color="#E53B62"/>
<stop offset="0.61" stop-color="#DE364C"/>
<stop offset="1" stop-color="#DB3444"/>
</linearGradient>
</defs>
</svg>
